# xmcd
#
# Track frame offsets:
#  150
#  14868
#  30633
#  49829
#  63196
#  84402
#  100197
#  113658
#  130456
#  142430
#  155293
#
# Disc length: 2270 seconds
#
# Revision: 0
# Processed by: cddbd v1.5.1PL2 Copyright (c) Steve Scherf et al.
# Submitted via: Collectorz.com_Music_Collector 6.10
#
DISCID=9708dc0b
DTITLE=JC Harrisson - Deeper in Love
DYEAR=1900
DGENRE=Country
TTITLE0=Mexican Vacation
TTITLE1=Tour of Duty
TTITLE2=Deeper in Love
TTITLE3=Little Toy Train
TTITLE4=Lonely Nights
TTITLE5=Honky Tonk Angel
TTITLE6=Bucky
TTITLE7=Tonnight
TTITLE8=Phantom of the Opry
TTITLE9=Danny loves to swing
TTITLE10=I'll keep on loving you
EXTD=
EXTT0=
EXTT1=
EXTT2=
EXTT3=
EXTT4=
EXTT5=
EXTT6=
EXTT7=
EXTT8=
EXTT9=
EXTT10=
PLAYORDER=
